<svg id="sorena.svg" xmlns="http://www.w3.org/2000/svg" width="1991.061" height="1991.06" viewBox="0 0 1991.061 1991.06">
  <defs>
    <style>
      .cls-1 {
        fill: #ff4e4e;
        fill-rule: evenodd;
      }

      .cls-2 {
        fill: none;
        stroke: #ff4e4e;
        stroke-width: 82px;
      }
    </style>
  </defs>
  <path id="それな_" data-name="それな！" class="cls-1" d="M402.635,3179.7c0,9.47,17.931,27.89,31.379,28.39,9.463,0.5,25.4-6.97,39.348-9.46,11.954-1.99,27.892-3.99,29.885-1.99-4.483,3.98-32.375,30.88-54.291,50.3-28.888,25.9-61.263,49.31-77.7,59.77-12.452,7.97-32.873,11.96-36.359,19.93a11.829,11.829,0,0,0-1,4.48c0,12.45,15.938,32.87,27.892,34.86,12.452,2,36.858-9.96,48.313-12.95,24.9-6.47,91.646-16.43,112.565-18.43-13.946,10.96-37.853,37.36-50.8,61.27-11.456,20.92-8.966,48.31-1,69.23,6.973,18.43,16.934,37.85,23.907,47.32,7.471,9.96,19.425,24.4,29.387,24.4,12.95,0,9.463-34.36,3.984-47.81-2.988-6.98-16.934-26.9-20.919-33.37-5.977-9.96-9.961-18.43-8.467-28.89,1.494-11.46,17.432-34.87,38.352-55.29,16.436-16.43,35.363-27.39,56.282-36.86,7.97-3.48,14.445-5.47,18.927-7.96,3.487-2,5.479-4.49,5.479-7.97,0-9.97-13.946-25.41-23.41-28.39-7.969-2.49-24.4-2.99-41.34-.5-25.4,3.48-88.159,13.45-119.538,18.92,14.444-16.43,68.236-60.76,99.615-89.15,5.977-5.48,25.4-17.43,26.4-25.9,1.494-11.96-16.436-31.88-32.375-35.36-8.965-2-20.421-2.99-32.375-2.99-25.9,0-54.788,3.98-71.723,8.96C414.091,3166.75,402.635,3172.73,402.635,3179.7Zm387.418,0c0,6.98.5,16.94,0.5,28.39-18.927,2-42.336,6.48-54.788,10.46-17.433,5.48-33.869,13.45-33.869,22.91,0,13.45,31.378,30.39,39.846,29.39,12.95-1.49,36.359-16.44,47.815-16.44,0,8.97-59.769,115.56-75.21,135.48-11.455,13.95-14.444,19.43-14.444,25.4,0,9.47,9.962,41.84,21.916,41.84,10.957,0,30.88-25.4,64.251-50.8-1.992,42.33-3.984,89.65-3.486,96.62,0.5,11.46,14.942,35.37,24.9,35.37,5.479,0,9.961-6.98,10.459-25.4,1-15.44,1-82.69,1.993-130.5,49.309-41.84,118.542-101.11,122.028-99.62s1,29.39.5,36.36c-2.49,33.87-3.486,95.63,3.985,124.02,3.985,14.95,19.425,37.86,32.873,48.32,11.456,8.96,21.418,15.94,27.888,13.94,5.48-1.99,11.46-18.42,11.46-34.86,0-5.48-1-13.95-3.49-19.43-2.98-7.47-25.9-11.95-33.866-29.88-9.961-22.41-4.482-66.74-2.49-99.62,1-17.43,2.988-53.79,1.992-63.75-1.992-20.42-16.436-41.34-26.4-39.35-7.969,1.5-34.865,25.4-51.8,40.84-11.954,11.46-44.329,36.86-81.186,69.24,1-16.94,1.494-35.37,2.49-53.3,11.954-20.42,23.908-35.86,24.406-39.84,1-9.96-8.467-19.93-22.912-25.4,0-16.94-.5-30.89-1.992-39.35-2.49-12.95-19.425-28.39-26.9-28.39C790.551,3142.35,789.555,3154.3,790.053,3179.7Zm-1.494,160.38c0,3.49,0,8.97-.5,14.95-19.425,18.92-26.9,25.4-28.889,25.4,0-1.99,13.946-27.89,29.387-53.3v12.95Zm308.721-151.91c0,10.46,20.92,32.37,31.88,33.87,5.97,0.5,16.93-3.99,33.37-8.97-7.97,19.93-16.94,43.34-23.91,61.77-16.44,42.83-41.34,107.58-41.34,121.03,0,20.92,20.42,38.35,26.4,36.86,5.48-2,9.96-9.97,13.94-26.9,3.99-14.44,23.41-76.21,42.34-132.99,9.46-30.38,16.93-48.81,23.91-65.74,20.92-3.99,46.82-8.47,50.3-9.47,3.99-.99,11.96-3.48,13.45-10.46,1.99-9.96-9.46-23.9-17.43-24.4-13.95-1-24.41-5.48-30.38-14.94-4.49-6.98-11.96-12.95-17.44-12.95-6.47,0-10.96,5.97-21.41,32.37a555.048,555.048,0,0,0-55.79,5.48C1112.72,3175.22,1097.28,3180.7,1097.28,3188.17Zm163.87,62.76c-2.99,8.46,13.44,31.38,26.89,33.37,14.94,1.99,30.38-1.5,49.31,0a399.214,399.214,0,0,1,46.32,6.47c15.94,3.49,25.9,3.99,25.9-5.97,0-6.48-3.98-16.94-10.96-23.91-6.47-6.48-17.93-10.46-36.36-14.45-13.94-2.98-37.85-5.97-64.25-5.97C1282.06,3240.47,1263.64,3243.46,1261.15,3250.93Zm36.85,52.79c-6.47.5-9.46,22.42-9.96,34.37-0.5,15.44-.99,47.32-0.99,78.2-21.42.5-53.8,11.45-58.28,31.38-5.98,24.4,13.95,57.28,25.4,71.22,8.47,9.96,21.42,17.93,30.39,17.93,9.46,0,30.88-16.93,34.36-37.85,1.99-10.96,1.99-22.91,1.99-36.86,11.96,2.49,21.42,6.48,26.4,7.47,8.47,2,20.92,3.99,24.91-2.49,4.48-7.47-2.49-32.87-15.94-43.33-6.48-4.98-20.42-7.47-35.86-8.47,0.49-27.89,2.49-63.75,2.99-82.18C1323.9,3321.16,1305.47,3302.23,1298,3303.72Zm-36.85,165.36c1.99-5.97,12.95-8.46,24.9-9.46v2.99c-0.5,21.42-1.99,36.36-6.97,36.36C1271.61,3498.97,1259.65,3473.57,1261.15,3469.08Zm384.42-52.79c7.47-1.5,11.46-17.93,11.46-45.33,0-37.35,9.46-156.39,9.96-179.3,0.5-21.42-16.44-46.32-29.39-46.32-14.94,0-17.43,31.87-18.43,54.78-1.49,33.37-3.98,165.37-1.49,180.81C1620.17,3394.87,1634.12,3418.78,1645.57,3416.29Zm6.48,111.57c11.45,0,18.92-12.45,18.92-21.92,0-10.96-8.46-31.87-28.39-44.33-10.46-6.47-27.89-10.46-31.87-3.98a10.593,10.593,0,0,0-1.5,5.98c0,9.46,8.47,21.41,10.46,27.89C1624.16,3505.44,1634.62,3527.86,1652.05,3527.86Z" transform="translate(-5.469 -2344.47)"/>
  <circle id="楕円形_2" data-name="楕円形 2" class="cls-2" cx="995.531" cy="995.53" r="954.531"/>
</svg>
