<svg id="naiwa.svg" xmlns="http://www.w3.org/2000/svg" width="1997.76" height="1997.76" viewBox="0 0 1997.76 1997.76">
  <defs>
    <style>
      .cls-1 {
        fill: none;
        stroke: #5b8df1;
        stroke-width: 82px;
      }

      .cls-2 {
        fill: #5b8df1;
        fill-rule: evenodd;
      }
    </style>
  </defs>
  <circle id="楕円形_2" data-name="楕円形 2" class="cls-1" cx="998.88" cy="998.88" r="957.88"/>
  <path id="ないわー" class="cls-2" d="M2439.41,3191.17c0,10.46,20.92,32.37,31.88,33.87,5.98,0.5,16.94-3.99,33.37-8.97-7.97,19.93-16.93,43.34-23.91,61.77-16.43,42.83-41.34,107.58-41.34,121.03,0,20.92,20.43,38.35,26.4,36.86,5.48-2,9.96-9.97,13.95-26.9,3.98-14.44,23.41-76.21,42.33-132.99,9.47-30.38,16.94-48.81,23.91-65.74,20.92-3.99,46.82-8.47,50.31-9.47,3.98-.99,11.95-3.48,13.45-10.46,1.99-9.96-9.47-23.9-17.44-24.4-13.94-1-24.4-5.48-30.38-14.94-4.48-6.98-11.95-12.95-17.43-12.95-6.48,0-10.96,5.97-21.42,32.37a555.111,555.111,0,0,0-55.78,5.48C2454.85,3178.22,2439.41,3183.7,2439.41,3191.17Zm163.87,62.76c-2.99,8.46,13.45,31.38,26.9,33.37,14.94,1.99,30.38-1.5,49.31,0a399.214,399.214,0,0,1,46.32,6.47c15.94,3.49,25.9,3.99,25.9-5.97,0-6.48-3.99-16.94-10.96-23.91-6.47-6.48-17.93-10.46-36.36-14.45-13.95-2.98-37.85-5.97-64.25-5.97C2624.2,3243.47,2605.77,3246.46,2603.28,3253.93Zm36.86,52.79c-6.48.5-9.46,22.42-9.96,34.37-0.5,15.44-1,47.32-1,78.2-21.42.5-53.79,11.45-58.27,31.38-5.98,24.4,13.94,57.28,25.4,71.22,8.47,9.96,21.42,17.93,30.38,17.93,9.46,0,30.88-16.93,34.37-37.85,1.99-10.96,1.99-22.91,1.99-36.86,11.95,2.49,21.42,6.48,26.4,7.47,8.47,2,20.92,3.99,24.9-2.49,4.48-7.47-2.49-32.87-15.94-43.33-6.47-4.98-20.42-7.47-35.86-8.47,0.5-27.89,2.49-63.75,2.99-82.18C2666.04,3324.16,2647.61,3305.23,2640.14,3306.72Zm-36.86,165.36c1.99-5.97,12.95-8.46,24.9-9.46v2.99c-0.49,21.42-1.99,36.36-6.97,36.36C2613.74,3501.97,2601.79,3476.57,2603.28,3472.08Zm337.11-44.82c4.49-16.44-11.45-40.35-19.42-42.34-6.48-1.99-24.91,24.91-34.37,23.91-5.48-.5-15.44-18.93-22.91-42.84-8.97-28.88-21.92-90.65-26.9-99.61-3.98-7.47-19.92-20.42-29.88-20.42-4.98,0-8.47,2.49-8.47,12.95a158.033,158.033,0,0,0,3.49,30.38c6.47,36.36,25.9,102.6,39.35,129,14.44,28.89,35.36,48.81,52.79,48.81C2907.52,3467.1,2936.41,3441.2,2940.39,3427.26Zm138.47-89.16c2.49,7.47,8.96,23.41,14.44,30.88,6.98,9.96,26.9,19.43,35.86,15.44,4.49-1.99,6.48-10.46,6.48-20.42a100.065,100.065,0,0,0-3.99-26.89c-5.97-19.93-22.41-46.82-40.34-64.26-17.43-16.93-35.36-20.42-41.34-15.44-5.48,4.49-1,17.44,5.48,27.4C3066.9,3302.74,3071.89,3317.68,3078.86,3338.1Zm186.69-149.42c-0.5,12.95-.5,17.43-0.5,25.9-7.97,1.49-22.91,4.48-33.87,6.97-21.41,4.98-38.85,11.96-39.84,18.93-1.99,7.47,14.94,31.38,25.4,30.88,8.97-.5,40.84-14.94,48.81-17.43a6.282,6.282,0,0,1,.5,2.99c-8.47,14.94-48.31,73.71-67.24,96.12-8.47,9.97-32.87,31.38-32.87,40.35,0,10.96,32.87,28.89,43.33,26.4,11.95-2.99,19.42-17.93,37.85-34.87,4.49-4.48,10.46-9.46,16.44-14.44-1.99,33.37-6.48,97.12-4.48,121.53,0.99,12.95,15.94,32.37,25.4,32.37,6.47,0,11.45-13.94,11.45-36.36,0-37.85,0-94.63,1-132.48,21.42-13.95,43.33-25.41,81.19-38.85,32.37-11.46,71.22-20.43,85.67-10.46,17.43,11.95,11.45,60.76-4.49,91.64-14.44,27.89-23.41,39.35-37.35,52.3-9.96,8.96-23.41,17.93-24.91,26.4-1.99,10.96,10.96,42.83,23.41,42.83,10.46,0,48.32-42.83,65.25-73.22,15.94-28.88,28.89-66.24,28.89-103.59,0-39.35-23.91-74.22-73.22-80.2-34.36-3.48-98.12,19.93-142.95,46.82,0.5-12.95,1-25.4,1.5-36.85,12.45-15.44,22.91-27.9,22.41-33.87-0.5-11.46-8.96-17.44-20.42-20.92,0.5-18.43.5-30.88,0-34.87-2.49-17.43-16.93-30.38-25.9-30.38C3269.04,3152.32,3266.05,3160.29,3265.55,3188.68Zm-18.43,149.92c2-3.49,8.97-13.45,21.42-30.38-0.5,4.98-1,10.96-1.49,17.43C3257.08,3331.63,3250.61,3336.11,3247.12,3338.6Zm345.58-15.94c-24.4,2.49-43.33,7.47-43.33,15.94,0,8.97,18.43,28.39,31.38,31.88a32.441,32.441,0,0,0,9.46.99c10.96,0,25.4-2.98,39.35-4.48,101.61-10.96,174.33-14.44,229.61-14.44,22.42,0,38.85-.5,38.85-10.46,0-10.46-9.46-26.4-28.89-29.39-6.97-1-20.91-1.49-38.35-1.49C3767.03,3311.21,3649.98,3317.18,3592.7,3322.66Z" transform="translate(-2163.12 -2341.12)"/>
</svg>
